<?xml version="1.0" standalone="no"?>
<!DOCTYPE svg PUBLIC "-//W3C//DTD SVG 20010904//EN"
 "http://www.w3.org/TR/2001/REC-SVG-20010904/DTD/svg10.dtd">
<svg version="1.0" xmlns="http://www.w3.org/2000/svg"
 width="512.000000pt" height="512.000000pt" viewBox="0 0 512.000000 512.000000"
 preserveAspectRatio="xMidYMid meet">
<metadata>
Created by potrace 1.14, written by Peter Selinger 2001-2017
</metadata>
<g transform="translate(0.000000,512.000000) scale(0.100000,-0.100000)"
fill="#000000" stroke="none">
<path d="M2378 4779 c-43 -15 -80 -24 -83 -21 -3 3 -5 0 -5 -6 0 -7 -6 -12
-14 -12 -13 0 -202 -59 -436 -137 -58 -19 -112 -36 -120 -38 -8 -2 -55 -18
-105 -35 -49 -17 -101 -33 -115 -36 -13 -3 -30 -10 -37 -16 -7 -6 -13 -8 -13
-5 0 4 -19 -1 -42 -9 -24 -9 -47 -17 -53 -18 -5 -2 -17 -6 -25 -9 -8 -3 -31
-10 -50 -17 -26 -8 -47 -28 -85 -81 -27 -39 -56 -77 -63 -84 -6 -8 -12 -16
-12 -19 0 -3 -7 -14 -16 -23 -9 -10 -75 -99 -146 -198 -71 -99 -138 -191 -148
-205 -18 -24 -232 -319 -268 -369 -9 -13 -23 -30 -29 -37 -7 -7 -13 -17 -13
-21 0 -8 70 -37 115 -48 11 -2 94 -30 185 -60 91 -31 176 -58 189 -61 13 -3
37 -12 52 -20 16 -8 31 -14 34 -14 3 0 6 0 8 -1 1 0 9 -2 17 -4 8 -1 85 -26
170 -54 85 -28 158 -51 161 -51 4 0 50 32 103 70 53 39 101 70 106 70 6 0 10
4 10 8 0 5 26 26 57 48 32 21 65 45 73 51 8 7 103 76 210 153 107 78 206 150
220 160 14 10 77 56 140 102 l115 84 0 488 c0 268 -2 491 -5 495 -3 3 -40 -6
-82 -20z m-673 -534 c29 -85 24 -131 -38 -331 -38 -122 -25 -188 43 -226 38
-22 76 -16 110 17 35 33 40 77 13 122 -16 28 -15 31 4 50 11 11 26 22 34 26 8
4 24 14 35 22 20 15 23 14 43 -20 58 -98 45 -204 -32 -276 -112 -104 -253
-111 -345 -16 -82 84 -87 162 -23 352 38 109 48 155 36 155 -7 0 -140 -94
-143 -102 -2 -4 -8 -8 -13 -8 -11 0 -70 -40 -80 -54 -10 -13 -25 0 -58 48
l-30 43 57 39 c31 22 62 43 67 47 8 7 118 84 198 139 11 7 33 23 50 35 28 21
31 22 42 5 7 -9 20 -39 30 -67z"/>
<path d="M2670 4741 c-1 -39 -1 -263 -1 -497 l-1 -426 24 -19 c24 -19 104 -77
232 -169 42 -30 111 -81 153 -112 42 -32 79 -58 83 -58 3 0 17 -10 31 -22 14
-13 32 -27 41 -33 10 -5 73 -52 142 -102 69 -51 130 -93 135 -93 5 0 11 -3 13
-8 3 -8 105 -86 151 -115 29 -18 29 -18 220 44 106 35 194 63 197 64 3 0 10 3
15 6 6 4 26 10 45 14 19 4 41 12 48 18 7 5 15 7 19 4 3 -4 11 -3 17 2 9 7 112
41 136 45 3 1 10 4 15 7 6 3 33 12 60 19 28 7 55 16 60 20 8 6 32 14 80 26 6
1 21 6 34 11 21 9 22 11 7 25 -9 9 -16 19 -16 22 0 3 -6 14 -14 23 -23 29 -79
105 -106 145 -14 21 -28 38 -32 38 -5 0 -8 6 -8 14 0 8 -4 16 -8 18 -7 3 -37
44 -174 236 -27 37 -54 74 -60 82 -7 8 -24 32 -38 53 -14 20 -28 37 -32 37 -5
0 -8 7 -8 15 0 8 -4 15 -10 15 -5 0 -10 4 -10 10 0 9 -19 35 -47 65 -7 8 -13
16 -13 19 0 3 -38 56 -84 118 l-85 113 -78 24 c-43 14 -81 25 -85 27 -5 1 -10
3 -13 4 -3 1 -8 3 -12 4 -5 1 -68 21 -140 45 -73 23 -134 41 -136 39 -2 -2
-11 3 -20 11 -10 7 -17 11 -17 7 0 -4 -13 0 -30 9 -16 9 -30 13 -30 10 0 -3
-9 -1 -21 5 -11 6 -28 13 -37 15 -20 4 -295 92 -334 107 -15 5 -28 9 -30 8 -2
-1 -20 5 -40 13 -20 8 -39 13 -42 9 -3 -3 -6 0 -6 7 0 6 -6 11 -12 10 -7 -1
-26 3 -42 10 -16 6 -36 13 -45 14 -9 1 -22 6 -28 10 -10 6 -13 -9 -13 -62z
m1031 -516 c69 -23 162 -112 178 -170 16 -58 13 -104 -8 -150 -31 -67 -120
-133 -178 -131 l-31 1 1 -57 c1 -49 -4 -64 -29 -100 -40 -58 -94 -87 -154 -84
-88 5 -196 78 -235 159 -19 41 -17 134 4 159 61 71 87 88 137 88 24 0 24 1 18
63 -6 57 -3 70 22 122 32 64 81 104 142 115 48 8 70 5 133 -15z"/>
<path d="M3597 4101 c-38 -19 -65 -65 -66 -109 -1 -43 42 -88 92 -97 45 -9 87
18 111 70 23 48 13 88 -29 122 -40 32 -66 35 -108 14z"/>
<path d="M3417 3834 c-28 -15 -57 -61 -53 -85 12 -72 60 -99 132 -76 33 11 59
68 47 102 -18 55 -79 83 -126 59z"/>
<path d="M2544 3621 c-16 -10 -69 -48 -119 -84 -49 -37 -99 -74 -110 -82 -11
-7 -93 -67 -182 -132 -89 -65 -171 -125 -183 -133 -12 -8 -56 -41 -98 -72 -42
-32 -78 -58 -81 -58 -3 0 -19 -12 -36 -26 -16 -14 -42 -33 -57 -42 -16 -9 -28
-20 -28 -24 0 -4 -5 -8 -10 -8 -6 0 -23 -11 -39 -25 l-28 -26 33 -97 c19 -53
33 -97 33 -97 0 0 2 -7 5 -15 2 -8 19 -60 36 -115 17 -55 34 -107 37 -115 7
-18 11 -30 16 -50 4 -14 7 -23 24 -67 3 -10 5 -24 4 -30 -1 -7 4 -13 10 -13 7
0 10 -3 6 -6 -3 -3 1 -25 10 -47 8 -23 16 -49 18 -57 8 -39 10 -45 15 -50 5
-4 59 -170 64 -195 1 -5 4 -14 8 -20 5 -9 39 -117 44 -142 1 -6 6 -19 12 -29
9 -16 49 -17 618 -18 l609 -1 13 24 c7 14 14 32 16 40 8 41 20 77 29 89 5 6 7
12 4 12 -3 0 6 33 20 73 14 39 27 79 28 87 2 8 42 132 89 275 48 143 86 263
86 267 0 4 4 17 9 30 5 13 9 26 10 30 1 4 8 23 17 43 8 19 14 36 13 37 0 2 2
10 5 18 2 8 12 40 22 70 9 30 19 60 21 66 2 6 -14 23 -37 38 -22 14 -48 33
-58 41 -18 15 -216 160 -321 235 -34 25 -111 81 -171 125 -60 44 -135 99 -167
122 -90 64 -207 151 -219 162 -8 6 -21 3 -40 -8z m522 -833 l-1 -233 -452 -3
-453 -3 0 236 0 235 454 0 453 0 -1 -232z m-961 19 c1 -143 0 -147 -20 -141
-45 13 -130 72 -177 123 -44 48 -98 136 -98 160 0 5 64 8 148 7 l147 -1 0
-148z m1093 79 c16 -8 52 -33 81 -56 l52 -41 -41 -39 c-44 -41 -142 -110 -158
-110 -5 0 -9 62 -9 139 l0 139 24 -9 c13 -5 36 -15 51 -23z m-354 -421 c29
-86 151 -275 178 -275 6 0 8 -3 4 -7 -4 -5 -189 -8 -411 -8 -364 0 -402 2
-395 16 5 9 16 22 26 29 28 24 95 129 129 204 l33 72 213 -1 214 0 9 -30z
m306 -417 l0 -68 -539 0 -538 0 2 68 c1 37 3 67 4 68 0 0 242 0 536 0 l535 0
0 -68z"/>
<path d="M430 2538 l0 -641 62 -86 c34 -47 66 -87 70 -89 4 -2 8 -8 8 -13 0
-8 45 -71 86 -122 8 -9 14 -19 14 -22 0 -3 7 -13 15 -22 8 -10 44 -58 80 -108
35 -49 72 -100 81 -112 9 -13 45 -62 80 -110 35 -49 67 -92 71 -98 5 -5 24
-32 43 -60 19 -27 37 -52 41 -55 3 -3 21 -27 40 -55 18 -27 37 -52 40 -55 3
-3 8 -11 10 -19 6 -16 8 -14 184 229 74 102 140 193 147 202 7 9 20 26 28 38
8 12 26 37 40 55 14 18 32 43 40 55 8 12 46 63 83 114 54 72 66 96 62 116 -6
25 -92 301 -103 330 -3 8 -6 17 -7 20 -1 3 -4 12 -8 20 -3 8 -38 116 -77 240
-39 124 -74 232 -77 240 -3 8 -8 21 -10 28 -1 6 -5 18 -6 25 -2 6 -7 19 -10
27 -13 31 -71 216 -74 235 -3 16 -25 37 -43 40 -9 2 -335 106 -350 112 -8 4
-17 7 -20 8 -3 0 -50 15 -105 33 -55 17 -103 31 -106 29 -3 -1 -12 3 -20 9 -8
6 -36 17 -64 24 -27 7 -56 17 -62 23 -7 5 -13 6 -13 3 0 -4 -9 -2 -21 4 -11 7
-31 14 -45 16 -13 2 -36 9 -51 16 -16 6 -34 12 -40 14 -10 2 -13 -131 -13
-638z m710 7 c30 -69 63 -98 117 -100 38 -2 49 -7 51 -21 2 -11 10 -36 17 -56
l14 -37 -52 -17 c-29 -9 -54 -17 -57 -17 -3 1 -21 -5 -40 -13 -19 -7 -125 -40
-235 -74 -110 -33 -208 -65 -217 -70 -25 -14 -99 -24 -97 -14 1 5 0 12 -1 17
-1 4 -3 10 -4 15 -1 4 -8 26 -16 50 -14 46 -13 50 16 55 10 2 27 7 36 11 9 4
22 9 30 10 16 3 229 70 314 98 65 22 67 26 45 83 -16 41 -33 97 -29 99 14 9
54 22 70 22 14 0 26 -13 38 -41z m150 -479 c10 -32 80 -120 80 -102 0 5 6 4
13 -2 6 -5 23 -9 37 -8 30 2 48 -13 53 -45 2 -13 7 -32 12 -42 4 -10 6 -19 4
-21 -6 -5 -131 -46 -157 -52 -13 -2 -40 -11 -60 -19 -31 -11 -146 -47 -162
-49 -3 -1 -18 -6 -35 -13 -34 -13 -260 -83 -269 -83 -5 0 -47 132 -43 136 3 2
169 55 327 105 74 23 137 43 139 45 2 2 -4 30 -15 61 -10 32 -18 60 -19 63 0
3 -4 11 -8 18 -6 8 2 17 25 27 51 22 65 19 78 -19z"/>
<path d="M4575 3139 c-60 -20 -155 -51 -210 -68 -55 -18 -107 -34 -115 -37 -8
-3 -17 -6 -20 -6 -3 0 -25 -8 -50 -18 -25 -10 -47 -18 -50 -18 -3 0 -12 -3
-20 -6 -8 -2 -53 -16 -100 -31 -47 -14 -92 -29 -100 -32 -8 -3 -20 -7 -27 -9
-39 -8 -113 -37 -121 -47 -7 -9 -83 -233 -87 -257 -3 -15 -138 -428 -146 -445
-5 -11 -11 -29 -13 -40 -3 -11 -27 -90 -55 -175 -28 -85 -61 -185 -73 -223
l-21 -68 32 -39 c17 -21 31 -43 31 -49 0 -5 3 -11 8 -13 6 -2 34 -40 116 -153
8 -11 97 -132 197 -270 100 -137 184 -255 186 -263 4 -10 10 -9 24 4 11 9 19
21 19 26 0 5 8 18 19 29 10 11 36 45 57 77 21 31 47 66 56 76 10 11 18 23 18
27 0 4 6 14 13 21 7 7 24 29 37 48 13 19 28 40 33 45 7 9 237 326 285 394 9
13 22 28 27 35 6 6 26 34 45 61 19 28 38 52 42 53 4 2 8 8 8 13 0 5 18 32 40
61 l40 53 0 637 c0 350 -3 638 -7 641 -5 2 -57 -14 -118 -34z m-690 -873 c6
-1 16 -5 24 -10 7 -5 21 -10 30 -10 18 -2 95 -25 211 -62 78 -25 115 -30 105
-15 -3 5 -1 12 5 16 6 4 8 10 6 14 -3 4 -1 13 4 21 7 11 16 11 57 -2 29 -10
47 -21 46 -29 -1 -8 -5 -26 -9 -41 -5 -21 -2 -27 16 -33 24 -7 25 -8 78 -20
41 -10 47 -23 32 -70 -7 -20 -13 -44 -14 -53 -3 -17 -40 -25 -61 -13 -5 3 -29
11 -52 17 -49 12 -49 12 -67 -66 -5 -19 -11 -39 -14 -45 -4 -5 -7 -15 -8 -20
-4 -26 -38 -125 -43 -125 -38 1 -116 34 -139 58 -15 16 -63 70 -107 118 -44
49 -101 111 -126 139 -98 108 -93 93 -62 175 4 8 5 19 4 23 0 4 3 16 9 27 7
14 17 17 37 13 16 -3 33 -6 38 -7z"/>
<path d="M3927 2104 c-5 -5 44 -59 186 -206 30 -32 49 -45 52 -36 2 7 12 40
21 73 9 33 19 65 21 71 5 14 -24 25 -152 60 -55 15 -105 31 -111 36 -6 4 -13
5 -17 2z"/>
<path d="M1928 1530 c-10 -8 -42 -49 -72 -90 -30 -41 -59 -80 -64 -85 -5 -6
-17 -24 -28 -40 -10 -17 -24 -37 -31 -45 -7 -8 -64 -87 -128 -175 -63 -88
-124 -171 -135 -183 -11 -13 -20 -26 -20 -28 0 -2 -22 -34 -50 -71 -49 -67
-49 -68 -27 -80 12 -6 39 -15 60 -18 20 -4 37 -10 37 -14 0 -6 17 -10 58 -13
6 -1 12 -5 12 -10 0 -4 6 -8 14 -8 7 0 105 -30 217 -66 227 -73 222 -71 229
-72 3 -1 21 -8 40 -16 19 -8 40 -15 45 -16 6 -2 15 -4 20 -6 6 -2 55 -17 110
-35 55 -17 157 -50 226 -73 132 -45 136 -45 219 -9 18 7 14 6 67 22 24 6 109
34 190 60 82 27 263 85 403 131 140 45 271 88 291 95 20 8 39 11 43 8 3 -4 6
0 6 7 0 7 3 11 6 7 4 -3 28 2 55 12 26 10 50 16 53 13 4 -3 6 -2 6 3 0 11 -68
112 -97 145 -13 14 -23 30 -23 37 0 6 -3 13 -8 15 -4 2 -25 28 -47 58 -22 30
-42 57 -45 60 -3 3 -21 28 -40 55 -19 28 -38 52 -42 53 -4 2 -8 10 -8 18 0 8
-4 14 -8 14 -4 0 -15 12 -24 28 -9 15 -24 36 -33 47 -8 11 -48 65 -88 120 -39
56 -82 113 -94 129 l-23 28 -627 2 c-544 1 -629 -1 -645 -14z m740 -230 c2 -5
11 -10 20 -10 25 0 66 -40 91 -87 22 -44 28 -78 11 -68 -5 3 -10 3 -10 -2 0
-4 -17 -7 -37 -6 -21 1 -48 2 -60 2 -14 1 -27 11 -35 29 -18 37 -78 53 -116
30 -34 -20 -62 -76 -69 -141 l-6 -51 23 22 c62 58 205 47 266 -20 66 -72 83
-147 57 -248 -21 -82 -82 -152 -145 -166 -5 -1 -9 -2 -10 -4 -12 -9 -103 -8
-143 1 -52 13 -115 55 -115 77 0 6 -4 12 -9 12 -12 0 -46 91 -57 150 -7 44 -7
227 1 240 2 4 7 21 10 39 18 101 91 185 185 214 26 8 145 -2 148 -13z"/>
<path d="M2509 925 c-62 -34 -64 -163 -3 -217 31 -27 90 -29 118 -4 32 29 42
53 45 108 5 102 -75 159 -160 113z"/>
</g>
</svg>
